<svg width="400" height="400" viewBox="0 0 400 400" fill="none" xmlns="http://www.w3.org/2000/svg">
<rect width="400" height="400" rx="60" fill="#03030F"/>
<path d="M77.3034 139.42C77.3034 131.967 82.7634 128.24 93.6834 128.24C98.3634 128.24 107.29 128.413 120.463 128.76C135.023 129.453 146.03 129.8 153.483 129.8C159.55 129.8 166.917 129.453 175.583 128.76C181.477 128.413 185.203 128.24 186.763 128.24C196.297 128.587 204.357 130.32 210.943 133.44C212.85 134.307 214.41 135.347 215.623 136.56C216.837 137.773 217.443 139.767 217.443 142.54C217.443 146.353 216.23 149.647 213.803 152.42C211.377 155.02 208.43 156.32 204.963 156.32C201.15 156.32 195.603 155.8 188.323 154.76C181.91 153.547 176.277 152.94 171.423 152.94C166.743 152.94 163.19 153.027 160.763 153.2C160.243 158.92 159.983 172.613 159.983 194.28C159.983 220.107 160.763 246.28 162.323 272.8L162.843 280.34C162.843 287.447 158.77 291 150.623 291C144.21 291 139.877 289.527 137.623 286.58C135.37 283.46 134.243 278.78 134.243 272.54C134.243 260.233 133.897 244.893 133.203 226.52C132.51 211.267 132.163 200.433 132.163 194.02C132.163 189.687 132.683 176.427 133.723 154.24L103.303 154.5C93.5967 154.5 86.8367 153.633 83.0234 151.9C79.21 149.993 77.3034 145.833 77.3034 139.42ZM298.486 176.34C301.953 176.34 304.64 177.207 306.546 178.94C308.626 180.5 309.666 182.493 309.666 184.92C309.666 186.653 309.32 188.473 308.626 190.38C308.106 192.113 307.5 193.933 306.806 195.84C302.82 205.2 294.413 218.287 281.586 235.1C294.76 252.087 305.42 263.007 313.566 267.86C314.26 268.207 315.56 268.813 317.466 269.68C319.373 270.547 320.846 271.587 321.886 272.8C323.1 274.013 323.706 275.4 323.706 276.96C323.706 280.773 322.233 283.893 319.286 286.32C316.513 288.573 313.133 289.7 309.146 289.7C302.386 289.7 295.02 285.973 287.046 278.52C279.073 270.893 272.313 262.92 266.766 254.6C262.78 260.667 258.186 266.733 252.986 272.8C247.96 278.693 243.28 283.72 238.946 287.88C237.213 289.787 235.133 291.26 232.706 292.3C230.453 293.34 228.2 293.86 225.946 293.86C222.826 293.86 220.053 293.167 217.626 291.78C215.2 290.393 213.986 287.967 213.986 284.5C213.986 283.633 214.593 282.247 215.806 280.34C217.02 278.26 217.713 277.047 217.886 276.7C219.966 273.06 222.74 269.333 226.206 265.52C229.673 261.533 231.84 259.02 232.706 257.98C234.786 255.38 237.04 252.867 239.466 250.44C240.853 248.88 242.933 246.453 245.706 243.16C248.48 239.867 250.386 237.267 251.426 235.36L242.326 222.88C237.993 217.853 234.266 213.867 231.146 210.92C228.026 207.8 225.513 206.24 223.606 206.24C220.833 206.24 218.233 207.02 215.806 208.58C213.726 209.967 211.646 210.66 209.566 210.66C207.313 210.66 205.58 210.14 204.366 209.1C203.153 207.887 202.546 206.587 202.546 205.2C202.546 199.307 204.886 194.28 209.566 190.12C214.246 185.787 220.14 183.62 227.246 183.62C234.006 183.62 239.986 185.96 245.186 190.64C250.56 195.147 255.846 201.213 261.046 208.84C261.74 209.533 262.52 210.66 263.386 212.22C264.253 213.78 265.12 215.08 265.986 216.12C267.893 213.347 271.36 207.973 276.386 200C281.76 190.467 284.966 185.007 286.006 183.62C289.646 178.767 293.806 176.34 298.486 176.34Z" fill="white"/>
</svg>
